Coordinates
version=1
nRows=26
nColumns=24
inDegrees=yes

Units are S.I. units (second, meters, Newtons, ...)
Angles are in degrees.

endheader
time	pelvis_tilt	pelvis_list	pelvis_rotation	pelvis_tx	pelvis_ty	pelvis_tz	hip_flexion_r	hip_adduction_r	hip_rotation_r	knee_angle_r	ankle_angle_r	subtalar_angle_r	mtp_angle_r	hip_flexion_l	hip_adduction_l	hip_rotation_l	knee_angle_l	ankle_angle_l	subtalar_angle_l	mtp_angle_l	lumbar_extension	lumbar_bending	lumbar_rotation
      0.52100000	     -3.85334681	      5.10419217	      3.24537378	     -0.72301370	      0.97173465	      0.28470996	     29.88147004	     -3.61898574	     -7.01355463	     -4.38198383	      5.75104910	     -4.41604628	      7.67494958	    -13.35292653	      9.18641308	      2.47645946	     -4.72504887	     11.32892647	     -2.01343838	     -0.72274638	      0.90355720	     -3.42744228	     -2.68916531
      0.52516667	     -3.89204003	      5.07840901	      3.29459581	     -0.71683173	      0.97114177	      0.28484952	     29.87161794	     -3.55925950	     -7.14884518	     -4.49311487	      5.61960285	     -4.51646880	      7.67575983	    -13.46114007	      9.12630806	      2.48863198	     -5.15843216	     11.24776027	     -2.05292962	     -0.71479785	      0.99751409	     -3.38110078	     -2.70116198
      0.52933333	     -3.94635562	      5.04734441	      3.34830027	     -0.71062762	      0.97056725	      0.28498642	     29.87637657	     -3.49949267	     -7.22981247	     -4.66468523	      5.40556948	     -4.66565496	      7.68724869	    -13.51710511	      9.05916535	      2.47701422	     -5.66102611	     11.18017961	     -2.01984662	     -0.68746268	      1.10379946	     -3.32569573	     -2.75607582
      0.53350000	     -3.95857972	      5.01491611	      3.37458177	     -0.70437216	      0.97008183	      0.28515735	     29.85077550	     -3.43146156	     -7.29615700	     -4.92593082	      5.23516599	     -4.77838198	      7.69209766	    -13.61019613	      8.99305608	      2.43316780	     -6.17293874	     11.04180159	     -2.05510029	     -0.67502661	      1.16305341	     -3.28301463	     -2.76878627
      0.53766667	     -4.04942066	      4.97764452	      3.42107496	     -0.69808954	      0.96953927	      0.28530277	     29.89763459	     -3.36903623	     -7.30830030	     -5.21161647	      4.85010099	     -5.04675685	      7.72299687	    -13.58583134	      8.92045099	      2.39324749	     -6.75447321	     10.95704100	     -1.94055625	     -0.61036719	      1.34439371	     -3.20408321	     -2.82570973
      0.54183333	     -4.11430692	      4.93295101	      3.42863106	     -0.69178187	      0.96906786	      0.28554001	     29.91089652	     -3.27280340	     -7.18198917	     -5.53596977	      4.55741720	     -5.51595376	      7.82729381	    -13.54378788	      8.84000183	      2.23481100	     -7.41253027	     10.86074421	     -1.80617608	     -0.41876484	      1.49007454	     -3.13358394	     -2.87366095
      0.54600000	     -4.12351413	      4.89189898	      3.44464453	     -0.68539183	      0.96872362	      0.28569407	     29.88857471	     -3.20796870	     -7.22805730	     -5.95635776	      4.18234428	     -5.67487106	      7.84998491	    -13.59169510	      8.76601361	      2.19799740	     -8.01022751	     10.61737963	     -1.83968460	     -0.36592013	      1.58816503	     -3.04885119	     -2.85856154
      0.55016667	     -4.21897353	      4.83630853	      3.46216031	     -0.67901362	      0.96831522	      0.28589217	     29.94760897	     -3.12147216	     -7.15132883	     -6.38286958	      3.68155322	     -5.96584146	      7.89856016	    -13.50144612	      8.67801042	      2.15660335	     -8.69082785	     10.39267912	     -1.80297791	     -0.25259702	      1.76001394	     -2.96621244	     -2.85242791
      0.55433333	     -4.30132153	      4.78263362	      3.47513437	     -0.67262835	      0.96797648	      0.28613413	     29.96221359	     -3.02371117	     -6.96118198	     -6.78121019	      3.21633840	     -6.48074938	      8.00994300	    -13.36196825	      8.58496767	      2.02433030	     -9.48985433	     10.17786836	     -1.72284851	      0.00684610	      1.93998712	     -2.89412608	     -2.84003473
      0.55850000	     -4.33189290	      4.71439275	      3.44815917	     -0.66614896	      0.96774123	      0.28636554	     29.97307673	     -2.91633768	     -6.90662303	     -7.31292751	      2.70546989	     -6.75724747	      8.06432734	    -13.31919445	      8.48613394	      1.94665906	    -10.19121173	      9.82676249	     -1.70662904	      0.15668514	      2.05936061	     -2.76636262	     -2.81511027
      0.56266667	     -4.40185616	      4.63022562	      3.43333870	     -0.65970049	      0.96752555	      0.28668791	     29.96067157	     -2.76668580	     -6.61117743	     -7.74043388	      2.24312699	     -7.58536822	      8.33770783	    -13.13767762	      8.35263564	      1.73818507	    -11.07194843	      9.51070617	     -1.53556067	      0.91976359	      2.23323140	     -2.65062353	     -2.76927573
      0.56683333	     -4.43419000	      4.56948811	      3.40533748	     -0.65321676	      0.96738619	      0.28693561	     29.96205044	     -2.67037653	     -6.53137058	     -8.27788970	      1.61930887	     -7.83728533	      9.89840652	    -13.00923287	      8.25707154	      1.63408632	    -11.91378520	      9.03932397	     -1.63609145	      5.71751189	      2.35573814	     -2.54785748	     -2.72941241
      0.57100000	     -4.50076947	      4.49520405	      3.38367050	     -0.64672409	      0.96726620	      0.28720044	     29.98706020	     -2.56079039	     -6.41788056	     -8.81325329	      1.05716266	     -8.07174749	      9.89737046	    -12.79233948	      8.14329440	      1.50988228	    -12.85369835	      8.60216197	     -1.60949664	      5.76005469	      2.53135786	     -2.43168596	     -2.67857637
      0.57516667	     -4.56957806	      4.40087845	      3.33777094	     -0.64023852	      0.96718733	      0.28753907	     30.01269729	     -2.40860146	     -6.20648174	     -9.36262212	      0.55117749	     -8.64522970	      9.90517793	    -12.52749077	      8.00134869	      1.31088882	    -13.86442616	      8.16522023	     -1.47986618	      5.96155913	      2.70730631	     -2.28190540	     -2.61232646
      0.57933333	     -4.63100917	      4.31128610	      3.29422124	     -0.63375358	      0.96717047	      0.28786527	     30.03384576	     -2.27211159	     -6.04342642	     -9.92391909	      0.00900991	     -9.04695760	      9.90854787	    -12.23757431	      7.86371753	      1.14117990	    -14.92483197	      7.65433683	     -1.41145968	      6.24740832	      2.87470905	     -2.14681846	     -2.54555939
      0.58350000	     -4.67352112	      4.19976035	      3.24700378	     -0.62726148	      0.96723087	      0.28822890	     30.01952299	     -2.10701008	     -5.85253519	    -10.46963813	     -0.47585238	     -9.51641640	      9.90500963	    -11.92157870	      7.69050365	      0.93325631	    -16.05682757	      7.07759653	     -1.27323328	      6.76161341	      3.02344897	     -1.98905046	     -2.46296569
      0.58766667	     -4.71324918	      4.10575731	      3.20536515	     -0.62078402	      0.96735012	      0.28855189	     30.01092357	     -1.97874714	     -5.73906734	    -11.03301766	     -1.00106064	     -9.67413867	      9.89290510	    -11.57894034	      7.54126641	      0.78819650	    -17.23025392	      6.41670382	     -1.25074894	      7.01359496	      3.16753300	     -1.85291187	     -2.40862548
      0.59183333	     -4.73761914	      3.96717873	      3.14032049	     -0.61430410	      0.96752757	      0.28895556	     29.98424405	     -1.78324781	     -5.56160600	    -11.61236710	     -1.38469404	    -10.14010565	      9.65286545	    -11.20437587	      7.32977631	      0.55279392	    -18.45843695	      5.64232468	     -1.22920250	     11.96975503	      3.28992753	     -1.64904018	     -2.34197634
      0.59600000	     -4.76667011	      3.85166683	      3.08901474	     -0.60787838	      0.96772396	      0.28933285	     29.97873056	     -1.63274126	     -5.46346018	    -12.22239028	     -1.76199331	    -10.30371031	      9.63763197	    -10.77106142	      7.13805365	      0.34853418	    -19.78871765	      4.91284025	     -1.08743160	     12.02228585	      3.41673023	     -1.49255332	     -2.26577093
      0.60016667	     -4.79501144	      3.71572791	      3.03346965	     -0.60148573	      0.96795457	      0.28974193	     29.96702293	     -1.45478480	     -5.33804144	    -12.82778352	     -2.06059238	    -10.56961950	      9.61119964	    -10.28714593	      6.91683108	      0.12811434	    -21.19075253	      4.13411626	     -0.95022609	     12.13498035	      3.53982728	     -1.30559514	     -2.19180579
      0.60433333	     -4.80711001	      3.56172097	      2.97437115	     -0.59511886	      0.96824168	      0.29017994	     29.93374098	     -1.25626805	     -5.21561247	    -13.43202208	     -2.30341337	    -10.84675920	      9.57075922	     -9.77475123	      6.66610269	     -0.09979872	    -22.65527059	      3.30958503	     -0.80532584	     12.30806783	      3.63974625	     -1.09995356	     -2.11832468
      0.60850000	     -4.82180051	      3.39828120	      2.91604421	     -0.58880298	      0.96854774	      0.29063401	     29.90449023	     -1.04912334	     -5.10023204	    -14.04112446	     -2.48308398	    -11.10633780	      9.51758287	     -9.21118069	      6.39820435	     -0.32343653	    -24.18808292	      2.44218810	     -0.66627236	     12.52795726	      3.73913857	     -0.88857631	     -2.04682290
      0.61266667	     -4.82172792	      3.22202417	      2.84377654	     -0.58255494	      0.96886555	      0.29112385	     29.87794038	     -0.82324231	     -4.99787635	    -14.68739450	     -2.62227813	    -11.43028314	      9.42319158	     -8.61187203	      6.10563741	     -0.57940885	    -25.79168252	      1.56783964	     -0.48850911	     12.89645099	      3.80340687	     -0.65254072	     -1.97545776
      0.61683333	     -4.74249372	      3.02457635	      2.78565310	     -0.57627510	      0.96936204	      0.29156125	     29.73438655	     -0.59166277	     -4.96915698	    -15.28113453	     -2.67194666	    -11.48137736	      9.38882903	     -8.09858134	      5.79477922	     -0.73682551	    -27.35983905	      0.49785508	     -0.45842620	     13.02073780	      3.77297299	     -0.38096718	     -1.91774728
      0.62100000	     -4.78937829	      2.82994283	      2.72808623	     -0.57018073	      0.96962036	      0.29210790	     29.74392076	     -0.34409068	     -4.84845547	    -15.89356955	     -2.70465151	    -11.81594970	      9.25295578	     -7.33346201	      5.45439619	     -1.01092741	    -29.13228072	     -0.38399644	     -0.21455574	     13.48055937	      3.89521814	     -0.15579859	     -1.84460653
      0.62516667	     -4.71934551	      2.59476781	      2.66280165	     -0.56404095	      0.97011266	      0.29267801	     29.57325409	     -0.04427333	     -4.73433935	    -16.40483256	     -2.67840963	    -11.97359856	      7.58487915	     -6.70371581	      5.05984813	     -1.25320124	    -30.83066083	     -1.55439400	     -0.11845766	     18.51229157	      3.87206174	      0.12465900	     -1.76632295
